<?xml version="1.0" encoding="UTF-8" standalone="no"?>
<svg
   xmlns:dc="http://purl.org/dc/elements/1.1/"
   xmlns:cc="http://creativecommons.org/ns#"
   xmlns:rdf="http://www.w3.org/1999/02/22-rdf-syntax-ns#"
   xmlns:svg="http://www.w3.org/2000/svg"
   xmlns="http://www.w3.org/2000/svg"
   xmlns:sodipodi="http://sodipodi.sourceforge.net/DTD/sodipodi-0.dtd"
   xmlns:inkscape="http://www.inkscape.org/namespaces/inkscape"
   width="500"
   height="80"
   viewBox="0 0 500 80"
   version="1.1"
   id="svg24"
   sodipodi:docname="white-logo-no-slogan.svg"
   inkscape:version="1.0.1 (3bc2e813f5, 2020-09-07)">
  <metadata
     id="metadata30">
    <rdf:RDF>
      <cc:Work
         rdf:about="">
        <dc:format>image/svg+xml</dc:format>
        <dc:type
           rdf:resource="http://purl.org/dc/dcmitype/StillImage" />
        <dc:title>Logo / Amplitude - Wide (no slogan)</dc:title>
      </cc:Work>
    </rdf:RDF>
  </metadata>
  <defs
     id="defs28" />
  <sodipodi:namedview
     pagecolor="#ffffff"
     bordercolor="#666666"
     borderopacity="1"
     objecttolerance="10"
     gridtolerance="10"
     guidetolerance="10"
     inkscape:pageopacity="0"
     inkscape:pageshadow="2"
     inkscape:window-width="2589"
     inkscape:window-height="1197"
     id="namedview26"
     showgrid="true"
     inkscape:pagecheckerboard="true"
     inkscape:showpageshadow="false"
     inkscape:zoom="3.658"
     inkscape:cx="255.39235"
     inkscape:cy="40"
     inkscape:window-x="167"
     inkscape:window-y="15"
     inkscape:window-maximized="0"
     inkscape:current-layer="svg24">
    <inkscape:grid
       type="xygrid"
       id="grid32" />
  </sodipodi:namedview>
  <!-- Generator: Sketch 54.1 (76490) - https://sketchapp.com -->
  <title
     id="title2">Logo / Amplitude - Wide (no slogan)</title>
  <desc
     id="desc4">Created with Sketch.</desc>
  <g
     id="Desktop-HD"
     transform="matrix(1.0069013,0,0,1.0036179,-474.37441,-39.414928)"
     fill="#ffffff"
     style="fill-rule:evenodd;stroke:none;stroke-width:1;fill:#000000;fill-opacity:1"
     inkscape:export-xdpi="96"
     inkscape:export-ydpi="96">
    <g
       id="Navigation"
       transform="translate(139,45)"
       style="fill:#000000;fill-opacity:1">
      <g
         id="Logo-/-Amplitude-/-Wide-(no-slogan)-/-White---old"
         transform="translate(377)"
         style="fill:#000000;fill-opacity:1">
        <g
           id="Amplitude"
           style="fill:#000000;fill-opacity:1">
          <path
             d="m 380.54958,58.517938 c 0,3.749544 -0.97643,9.862063 -9.29561,9.862063 -4.64697,0 -9.17677,-2.649134 -9.17677,-9.006188 v -2.526867 h 5.54529 v 1.304189 c 0,2.812158 0.66397,4.849086 3.5542,4.849086 3.24091,0 3.24091,-2.729778 3.24091,-4.767574 V 38.590034 h 6.13198 z m 9.5695,-0.48907 c 0,3.870944 2.89023,5.379779 6.17103,5.379779 2.14815,0 5.42812,-0.652094 5.42812,-3.627275 0,-3.138205 -4.17829,-3.668032 -8.27929,-4.809197 -4.14006,-1.141166 -8.31918,-2.812158 -8.31918,-8.272582 0,-5.950363 5.38989,-8.803276 10.42743,-8.803276 5.81952,0 11.17035,2.649134 11.17035,9.373858 h -5.93669 c -0.19528,-3.505008 -2.57694,-4.401638 -5.50622,-4.401638 -1.95286,0 -4.21818,0.855874 -4.21818,3.301229 0,2.241575 1.32795,2.526866 8.31918,4.400771 2.03014,0.529826 8.27929,1.874771 8.27929,8.477228 0,5.339024 -4.02289,9.332236 -11.59915,9.332236 -6.17103,0 -11.95066,-3.178961 -11.87338,-10.351133 z"
             id="Combined-Shape"
             style="fill:#000000;fill-opacity:1" />
          <polygon
             id="Fill-12"
             points="322.70558,38.115531 322.70558,14.200485 356.65789,14.200485 356.65789,12.206047 320.79345,12.206047 320.79345,68.36075 356.95706,68.36075 356.95706,66.366312 322.70558,66.366312 322.70558,40.109969 354.63939,40.109969 354.63939,38.115531 "
             style="fill:#000000;fill-opacity:1" />
          <path
             d="m 292.72921,12.206307 c 6.89899,0 22.94401,2.735849 22.94401,28.077352 0,9.372124 -2.61434,16.633613 -7.76989,21.581553 -4.42758,4.249021 -10.47646,6.495798 -17.49179,6.495798 h -16.586 V 12.206307 Z m -0.37312,1.994439 h -16.61841 v 52.165826 h 15.04698 c 11.10886,0 22.97808,-6.852195 22.97808,-26.082913 0,-21.558141 -11.6407,-26.082913 -21.40665,-26.082913 z"
             id="path8"
             style="fill:#000000;fill-opacity:1" />
          <path
             d="m 267.24416,47.385159 c 0,13.475464 -6.01896,20.307715 -17.89067,20.307715 -11.87172,0 -17.89151,-6.832251 -17.89151,-20.307715 V 12.206741 h -1.91131 v 35.178418 c 0,14.589748 6.84747,22.302153 19.80282,22.302153 12.95451,0 19.80115,-7.712405 19.80115,-22.302153 V 12.206741 h -1.91048 z"
             id="Fill-10"
             style="fill:#000000;fill-opacity:1" />
          <polygon
             id="Fill-9"
             points="185.34976,14.200746 204.57004,14.200746 204.57004,68.36101 206.48218,68.36101 206.48218,14.200746 225.70246,14.200746 225.70246,12.206307 185.34976,12.206307 "
             style="fill:#000000;fill-opacity:1" />
          <polygon
             id="Fill-7"
             points="179.59099,68.360403 181.50313,68.360403 181.50313,12.206568 179.59099,12.206568 "
             style="fill:#000000;fill-opacity:1" />
          <polygon
             id="Fill-5"
             points="176.71489,66.366746 145.52982,66.366746 145.52982,12.206481 143.61768,12.206481 143.61768,68.360317 176.71489,68.360317 "
             style="fill:#000000;fill-opacity:1" />
          <path
             d="m 122.51086,12.206307 c 10.59945,0 16.43641,5.481236 16.43641,15.434349 0,9.472714 -6.58487,15.357173 -17.18432,15.357173 H 102.60084 V 68.36101 h -1.9113 V 12.206307 Z m -19.91002,1.994439 v 26.802645 h 19.91002 c 8.82359,0 14.52511,-5.245372 14.52511,-13.362735 0,-8.792003 -5.02259,-13.43991 -14.52511,-13.43991 z"
             id="path14"
             style="fill:#000000;fill-opacity:1" />
          <polygon
             id="Fill-2"
             points="69.674408,51.65421 69.733409,51.768674 71.617294,51.768674 94.105911,14.873305 94.105911,68.360664 96.017219,68.360664 96.017219,12.206828 93.22754,12.206828 70.691556,49.223597 51.528616,12.323025 51.470445,12.206828 48.795445,12.206828 "
             style="fill:#000000;fill-opacity:1" />
          <path
             d="m 34.137624,0 h 2.377501 l 35.694093,68.21585 h -2.37667 L 55.2019,40.641444 2.377501,68.105722 H 0 Z m -6.107876,30.755968 v 1.608558 h 6.544984 v 6.829649 h 1.54068 v -6.829649 h 6.544984 v -1.608558 h -6.544984 v -6.830516 h -1.54068 v 6.830516 z"
             id="path17"
             style="fill:#000000;fill-opacity:1" />
        </g>
      </g>
    </g>
  </g>
</svg>
