<?xml version="1.0" encoding="UTF-8" standalone="no"?>
<svg
   width="24px"
   height="24px"
   viewBox="0 0 24 24"
   version="1.1"
   id="svg13"
   sodipodi:docname="previous.svg"
   inkscape:version="1.4 (86a8ad7, 2024-10-11)"
   xmlns:inkscape="http://www.inkscape.org/namespaces/inkscape"
   xmlns:sodipodi="http://sodipodi.sourceforge.net/DTD/sodipodi-0.dtd"
   xmlns="http://www.w3.org/2000/svg"
   xmlns:svg="http://www.w3.org/2000/svg"
   xmlns:rdf="http://www.w3.org/1999/02/22-rdf-syntax-ns#"
   xmlns:cc="http://creativecommons.org/ns#"
   xmlns:dc="http://purl.org/dc/elements/1.1/">
  <metadata
     id="metadata17">
    <rdf:RDF>
      <cc:Work
         rdf:about="">
        <dc:format>image/svg+xml</dc:format>
        <dc:type
           rdf:resource="http://purl.org/dc/dcmitype/StillImage" />
        <dc:title>Shape</dc:title>
      </cc:Work>
    </rdf:RDF>
  </metadata>
  <sodipodi:namedview
     pagecolor="#ffffff"
     bordercolor="#666666"
     borderopacity="1"
     objecttolerance="10"
     gridtolerance="10"
     guidetolerance="10"
     inkscape:pageopacity="0"
     inkscape:pageshadow="2"
     inkscape:window-width="1860"
     inkscape:window-height="1231"
     id="namedview15"
     showgrid="false"
     inkscape:pagecheckerboard="true"
     inkscape:showpageshadow="false"
     inkscape:zoom="30.625"
     inkscape:cx="32.620408"
     inkscape:cy="12"
     inkscape:window-x="0"
     inkscape:window-y="0"
     inkscape:window-maximized="0"
     inkscape:current-layer="svg13"
     inkscape:deskcolor="#d1d1d1" />
  <!-- Generator: Sketch 46.2 (44496) - http://www.bohemiancoding.com/sketch -->
  <title
     id="title2">Shape</title>
  <desc
     id="desc4">Created with Sketch.</desc>
  <defs
     id="defs6" />
  <g
     id="Screens"
     stroke="none"
     stroke-width="1"
     fill="none"
     fill-rule="evenodd"
     transform="matrix(0.9877551,0,0,0.98639455,0.16326531,0.19591837)">
    <g
       id="Player"
       transform="translate(-88,-528)"
       fill="#ffffff">
      <g
         id="Controls"
         transform="translate(24,504)">
        <g
           id="Skip-Previous"
           transform="translate(52,12)">
          <path
             d="m 12,12 h 4 v 24 h -4 z m 7,12 17,12 V 12 Z"
             id="Shape" />
        </g>
      </g>
    </g>
  </g>
  <path
     d="m 39.657143,19.379592 q -3.35,0 -5.675,-2.325 -2.325,-2.325 -2.325,-5.675 0,-3.3500002 2.325,-5.6750002 2.325,-2.325 5.675,-2.325 1.725,0 3.3,0.7125 1.575,0.7125 2.7,2.0375 v -2.75 h 2 v 7.0000002 h -7 V 8.3795918 h 4.2 q -0.8,-1.4 -2.1875,-2.2 -1.3875,-0.8 -3.0125,-0.8 -2.5,0 -4.25,1.75 -1.75,1.75 -1.75,4.2500002 0,2.5 1.75,4.25 1.75,1.75 4.25,1.75 1.925,0 3.475,-1.1 1.55,-1.1 2.175,-2.9 h 2.1 q -0.7,2.65 -2.85,4.325 -2.15,1.675 -4.9,1.675 z"
     id="path1"
     style="stroke-width:0.025;fill:#ffffff" />
</svg>
